<svg width="148" height="33" viewBox="0 0 148 33" fill="none" xmlns="http://www.w3.org/2000/svg">
<path d="M26.7469 32.2366H20.7875L13.2166 20.1308H13.0868L5.60245 32.2366H0L10.1234 16.681L0.356913 1.83008H6.31628L13.4329 13.1576H13.5194L20.7334 1.83008H26.3359L16.4829 16.6389L26.736 32.2366H26.7469Z" fill="black"/>
<path d="M44.4303 32.2365C43.1432 32.2365 42.159 31.8789 41.4776 31.1743C40.7854 30.4591 40.3744 29.5545 40.223 28.4502H39.9959C39.5525 29.8701 38.7305 30.9429 37.53 31.6686C36.3402 32.3943 34.891 32.7624 33.1821 32.7624C30.7594 32.7624 28.8991 32.1524 27.6013 30.9324C26.3034 29.7123 25.6545 28.0716 25.6545 26.0101C25.6545 23.7488 26.4981 22.045 28.1853 20.9091C29.8725 19.7731 32.3385 19.2052 35.594 19.2052H39.8012V17.291C39.8012 15.8921 39.4119 14.8193 38.6331 14.0726C37.8544 13.3153 36.6431 12.9367 35.0099 12.9367C33.6364 12.9367 32.5115 13.2312 31.6463 13.8096C30.7811 14.3881 30.0456 15.1349 29.4507 16.0289L26.5414 13.4626C27.3201 12.1899 28.4124 11.1276 29.8077 10.3073C31.2137 9.47638 33.0523 9.06619 35.3128 9.06619C38.3303 9.06619 40.6448 9.74984 42.2563 11.1171C43.8679 12.4844 44.679 14.4407 44.679 16.9965V28.3661H72.3344V32.2471H44.4086L44.4303 32.2365ZM34.5773 29.1444C36.1023 29.1444 37.3569 28.8183 38.3411 28.1662C39.3253 27.5141 39.8229 26.6306 39.8229 25.5263V22.2553H35.7021C32.3277 22.2553 30.6404 23.2755 30.6404 25.3054V26.0942C30.6404 27.1145 30.9865 27.8717 31.6896 28.3766C32.3926 28.8814 33.3552 29.1338 34.5773 29.1338V29.1444Z" fill="black"/>
<path d="M70.5607 32.2366V9.58158H75.4385V13.3259H75.6656C76.1739 12.1058 76.9418 11.0856 77.9693 10.2757C78.9968 9.46588 80.4136 9.05569 82.1982 9.05569C84.5884 9.05569 86.4487 9.81296 87.779 11.338C89.1093 12.8631 89.7691 15.0297 89.7691 17.8484V32.226H84.8913V18.4585C84.8913 14.914 83.4312 13.1471 80.5002 13.1471C79.8729 13.1471 79.2564 13.2312 78.6399 13.389C78.0234 13.5467 77.4826 13.7886 77.0067 14.1042C76.5309 14.4197 76.1523 14.8299 75.8603 15.3242C75.5791 15.8185 75.4385 16.397 75.4385 17.0701V32.226H70.5607V32.2366Z" fill="black"/>
<path d="M106.933 28.4923H106.706C106.198 29.828 105.365 30.8693 104.219 31.6265C103.072 32.3838 101.72 32.7624 100.163 32.7624C97.2102 32.7624 94.9173 31.7212 93.3058 29.6492C91.6943 27.5772 90.8831 24.6639 90.8831 20.9196C90.8831 17.1753 91.6943 14.2619 93.3058 12.1899C94.9173 10.118 97.1994 9.07672 100.163 9.07672C101.72 9.07672 103.072 9.44484 104.219 10.1916C105.365 10.9278 106.198 11.9901 106.706 13.3469H106.933V0H111.811V32.2366H106.933V28.4923ZM101.645 28.6606C103.137 28.6606 104.392 28.303 105.408 27.5983C106.425 26.8831 106.933 25.947 106.933 24.7901V17.0386C106.933 15.8816 106.425 14.935 105.408 14.2304C104.392 13.5152 103.137 13.1681 101.645 13.1681C99.9465 13.1681 98.5838 13.694 97.5671 14.7562C96.5505 15.8185 96.0421 17.2174 96.0421 18.9633V22.8864C96.0421 24.6323 96.5505 26.0312 97.5671 27.0934C98.5838 28.1557 99.9357 28.6816 101.645 28.6816V28.6606Z" fill="black"/>
<path d="M123.687 32.7519C122.01 32.7519 120.518 32.4785 119.209 31.921C117.89 31.3741 116.776 30.5748 115.845 29.544C114.915 28.5133 114.212 27.2617 113.715 25.7998C113.217 24.3378 112.979 22.6971 112.979 20.8985C112.979 19.1 113.228 17.4698 113.715 15.9973C114.212 14.5354 114.915 13.2838 115.845 12.253C116.776 11.2223 117.89 10.4335 119.209 9.87606C120.518 9.32914 122.01 9.04517 123.687 9.04517C125.363 9.04517 126.888 9.33966 128.186 9.91813C129.484 10.4966 130.565 11.3065 131.431 12.3372C132.296 13.3679 132.945 14.5669 133.377 15.9342C133.81 17.3015 134.026 18.7635 134.026 20.3306V22.1186H118.03V22.8548C118.03 24.5902 118.56 26.0101 119.62 27.1145C120.68 28.2293 122.194 28.7763 124.163 28.7763C125.601 28.7763 126.802 28.4712 127.786 27.8717C128.77 27.2722 129.603 26.4413 130.295 25.4001L133.161 28.1557C132.296 29.5546 131.041 30.6694 129.397 31.5003C127.753 32.3312 125.839 32.7414 123.665 32.7414L123.687 32.7519ZM123.687 12.7684C122.854 12.7684 122.086 12.9157 121.383 13.1996C120.68 13.4941 120.085 13.8938 119.588 14.4197C119.09 14.9456 118.711 15.5661 118.441 16.2918C118.171 17.0175 118.041 17.8169 118.041 18.6898V18.9949H128.878V18.5636C128.878 16.8177 128.413 15.4189 127.494 14.3566C126.564 13.2943 125.298 12.7684 123.687 12.7684Z" fill="black"/>
<path d="M135.194 32.2366V9.58157H140.072V13.9359H140.299C140.624 12.7789 141.316 11.7587 142.354 10.8858C143.403 10.0128 144.853 9.58157 146.702 9.58157H148V14.1567H146.075C144.139 14.1567 142.646 14.4618 141.619 15.0718C140.591 15.6818 140.072 16.5863 140.072 17.7748V32.2366H135.194Z" fill="black"/>
<path d="M52.5139 21.2074L48.4696 18.6199L53.6807 12.698L46 10.6153L47.5293 6.45L54.8929 9.20584L54.4851 1.8324H59.5149L59.1524 9.20584L66.4706 6.45L68 10.6153L60.3193 12.698L65.5304 18.6199L61.4861 21.1653L57 14.9174L52.5139 21.2074Z" fill="#FF2CFA"/>
</svg>
